# AST/ASF file generated using VICON BodyLanguage
# -----------------------------------------------
:version 1.10
:name VICON
:units
  mass 1.0
  length 0.45
  angle deg
:documentation
   .ast/.asf automatically generated from VICON data using
   VICON BodyBuilder and BodyLanguage model FoxedUp or BRILLIANT.MOD
:root
   order TX TY TZ RX RY RZ
   axis XYZ
   position 0 0 0  
   orientation 0 0 0 
:bonedata
  begin
     id 1 
     name lhipjoint
     direction 0.541323 -0.757556 0.364798 
     length 2.47576 
     axis 0 0 0  XYZ
  end
  begin
     id 2 
     name lfemur
     direction 0.34202 -0.939693 0  
     length 7.46493  
     axis 0 0 20  XYZ
    dof rx ry rz
    limits (-160.0 20.0)
           (-70.0 70.0)
           (-60.0 70.0)
  end
  begin
     id 3 
     name ltibia
     direction 0.34202 -0.939693 0   
     length 7.73805   
     axis 0 0 20   XYZ
    dof rx
    limits (-10.0 170.0)
  end
  begin
     id 4 
     name lfoot
     direction 0.107174 -0.294458 0.949636   
     length 2.25864   
     axis -90 7.62852e-016 20   XYZ
    dof rx rz
    limits (-45.0 90.0)
           (-70.0 20.0)
  end
  begin
     id 5 
     name ltoes
     direction 1.53606e-011 -4.21934e-011 1   
     length 1.12451   
     axis -90 7.62852e-016 20   XYZ
    dof rx
    limits (-90.0 20.0)
  end
  begin
     id 6 
     name rhipjoint
     direction -0.524745 -0.766967 0.36933   
     length 2.44538  
     axis 0 0 0  XYZ 
  end
  begin
     id 7 
     name rfemur
     direction -0.34202 -0.939693 0   
     length 7.61604   
     axis 0 0 -20   XYZ
    dof rx ry rz
    limits (-160.0 20.0)
           (-70.0 70.0)
           (-70.0 60.0)
  end
  begin
     id 8 
     name rtibia
     direction -0.34202 -0.939693 0   
     length 7.61056   
     axis 0 0 -20   XYZ
    dof rx
    limits (-10.0 170.0)
 end
 begin
     id 9 
     name rfoot
     direction -0.12616 -0.346623 0.929482   
     length 2.46372  
     axis -90 -7.62852e-016 -20   XYZ
    dof rx rz
    limits (-45.0 90.0)
           (-20.0 70.0)
  end
  begin
     id 10 
     name rtoes
     direction -1.53531e-011 -4.22004e-011 1   
     length 1.21611   
     axis -90 -7.62852e-016 -20   XYZ
    dof rx
    limits (-90.0 20.0)
  end
  begin
     id 11 
     name lowerback
     direction -0.000778023 0.997293 -0.0735223   
     length 2.06139   
     axis 0 0 0   XYZ
    dof rx ry rz
    limits (-20.0 45.0)
           (-30.0 30.0)
           (-30.0 30.0)
  end
  begin
     id 12 
     name upperback
     direction 0.0222598 0.999722 -0.0078355   
     length 2.06383   
     axis 0 0 0   XYZ
    dof rx ry rz
    limits (-20.0 45.0)
           (-30.0 30.0)
           (-30.0 30.0)
  end
  begin
     id 13 
     name thorax
     direction 0.0219654 0.999405 0.0265994   
     length 2.07163   
     axis 0 0 0   XYZ
    dof rx ry rz
    limits (-20.0 45.0)
           (-30.0 30.0)
           (-30.0 30.0)
  end
  begin
     id 14 
     name lowerneck
     direction 0.0213282 0.988147 0.15202   
     length 1.75969   
     axis 0 0 0   XYZ
    dof rx ry rz
    limits (-20.0 45.0)
           (-30.0 30.0)
           (-30.0 30.0)
  end
  begin
     id 15 
     name upperneck
     direction -0.0546456 0.982624 -0.177379   
     length 1.79244   
     axis 0 0 0   XYZ
    dof rx ry rz
    limits (-20.0 45.0)
           (-30.0 30.0)
           (-30.0 30.0)
  end
  begin
     id 16
     name head
     direction -0.0199987 0.996855 -0.076686  
     length 1.80555  
     axis 0 0 0   XYZ
    dof rx ry rz
    limits (-20.0 45.0)
           (-30.0 30.0)
           (-30.0 30.0)
  end
  begin
     id 17 
     name lclavicle
     direction 0.929565 0.363219 -0.063096  
     length 3.55722  
     axis 0 0 0   XYZ
    dof ry rz
    limits (-20.0 10.0)
           (0.0 20.0)
  end
  begin
     id 18 
     name lhumerus
     direction 1 -4.48993e-011 -2.36203e-027   
     length 4.92785   
     axis 180 -30 -90   XYZ
    dof rx ry rz
    limits (-60.0 90.0)
           (-90.0 90.0)
           (-90.0 90.0)
  end
  begin
     id 19
     name lradius
     direction 1 -4.48947e-011 2.02997e-027   
     length 3.44052   
     axis 180 -30 -90   XYZ
    dof rx
    limits (-10.0 170.0)
  end
  begin
     id 20
     name lwrist
     direction 1 -4.48962e-011 1.45991e-027   
     length 1.72026   
     axis 1.49639e-024 90 90   XYZ
    dof ry
    limits (-180.0 0.0)
 end
  begin
     id 21 
     name lhand
     direction 1 -4.48984e-011 2.91906e-027   
     length 0.654326   
     axis -1.863e-015 90 90   XYZ
    dof rx rz
    limits (-90.0 90.0)
           (-45.0 45.0)
  end
  begin
     id 22 
     name lfingers
     direction 1 -4.48961e-011 5.83968e-027   
     length 0.527534   
     axis -3.72598e-015 90 90   XYZ
    dof rx
    limits (0.0 90.0)
  end
  begin
     id 23
     name lthumb
     direction 0.707107 -6.34963e-011 0.707107   
     length 0.757437   
     axis -90 45 -6.68868e-015   XYZ
    dof rx rz
    limits (-45.0 45.0)
           (-45.0 45.0)
  end
  begin
     id 24 
     name rclavicle
     direction -0.902944 0.422599 -0.0781198   
     length 3.54432  
     axis 0 0 0   XYZ 
    dof ry rz
    limits (-10.0 20.0)
           (-20.0 0.0)
  end
  begin
     id 25 
     name rhumerus
     direction -1 -4.48953e-011 -4.75835e-028  
     length 5.09181   
     axis 180 30 90   XYZ
    dof rx ry rz
    limits (-90.0 60.0)
           (-90.0 90.0)
           (-90.0 90.0)
  end
  begin
     id 26 
     name rradius
     direction -1 -4.48986e-011 -3.25889e-027   
     length 3.49865   
     axis 180 30 90   XYZ
    dof rx
    limits (-10.0 170.0)
  end
  begin
     id 27 
     name rwrist
     direction -1 -4.48963e-011 1.45989e-027   
     length 1.74933   
     axis 1.49639e-024 -90 -90   XYZ
    dof ry
    limits (-180.0 0.0)
  end
  begin
     id 28
     name rhand
     direction -1 -4.49003e-011 2.91844e-027   
     length 0.66641   
     axis -1.863e-015 -90 -90   XYZ
    dof rx rz
    limits (-90.0 90.0)
           (-45.0 45.0)
  end
  begin
     id 29
     name rfingers
     direction -1 -4.48973e-011 5.83886e-027   
     length 0.537277   
     axis -3.72598e-015 -90 -90   XYZ
    dof rx
    limits (0.0 90.0)
  end
  begin
     id 30
     name rthumb
     direction -0.707107 -6.34976e-011 0.707107   
     length 0.771425   
     axis -90 -45 6.68868e-015   XYZ
    dof rx rz
    limits (-45.0 45.0)
           (-45.0 45.0)
  end
:hierarchy
  begin
    root lhipjoint rhipjoint lowerback
    lhipjoint lfemur
    lfemur ltibia
    ltibia lfoot
    lfoot ltoes
    rhipjoint rfemur
    rfemur rtibia
    rtibia rfoot
    rfoot rtoes
    lowerback upperback
    upperback thorax
    thorax lowerneck lclavicle rclavicle
    lowerneck upperneck
    upperneck head
    lclavicle lhumerus
    lhumerus lradius
    lradius lwrist
    lwrist lhand lthumb
    lhand lfingers
    rclavicle rhumerus
    rhumerus rradius
    rradius rwrist
    rwrist rhand rthumb
    rhand rfingers
  end

#!OML:ASF H:\LiuWeirdWalks\Patient Classification 1\Patient 1\Session 1\male.ASF
:FULLY-SPECIFIED
:DEGREES
976
root 3.25449 17.5202 34.6216 4.51884 190.081 5.11203
lowerback 2.41714 8.85334 12.7726
upperback 2.20483 11.9849 -2.95181
thorax 4.27992 6.40432 -9.68855
lowerneck -4.40033 -3.52651 4.97296
upperneck 5.81164 -4.79349 -4.88378
head 2.3821 -2.44334 -2.61367
rclavicle 3.21534e-014 -1.19271e-015
rhumerus 4.75754 -0.425639 -87.0042
rradius 39.3676
rwrist -24.2478
rhand -21.6782 -1.07878
rfingers 7.12502
rthumb 4.71948 -31.0062
lclavicle 3.21534e-014 -1.19271e-015
lhumerus -60.1317 13.6285 50.0263
lradius 44.2692
lwrist 0.513192
lhand -14.7187 -2.37325
lfingers 7.12502
lthumb 11.4361 27.2949
rfemur 16.641 -10.9899 32.1885
rtibia -3.18055e-015
rfoot -11.3948 -28.473
rtoes -5.75616
lfemur -42.6139 -2.48024 -14.1288
ltibia 26.1242
lfoot -10.9028 7.76079
ltoes -19.1912
977
root 3.24461 17.5001 34.508 4.58128 189.941 5.19188
lowerback 2.56317 8.93017 12.9315
upperback 2.0672 12.1233 -3.08962
thorax 4.15376 6.47106 -9.94168
lowerneck -4.46161 -3.60882 4.73104
upperneck 5.93257 -4.90105 -4.65206
head 2.43693 -2.49507 -2.50042
rclavicle -9.71063e-014 2.22639e-014
rhumerus 5.55832 -0.46309 -87.0195
rradius 39.8037
rwrist -24.3254
rhand -21.5612 -0.869908
rfingers 7.12502
rthumb 4.83247 -30.7948
lclavicle -9.71063e-014 2.22639e-014
lhumerus -60.9447 13.4969 49.1553
lradius 44.3776
lwrist -0.166894
lhand -14.4648 -2.42074
lfingers 7.12502
lthumb 11.6809 27.2336
rfemur 17.0126 -10.8269 32.1845
rtibia -1.27222e-014
rfoot -11.4175 -28.2507
rtoes -6.29066
lfemur -42.718 -2.28615 -14.2291
ltibia 25.931
lfoot -10.8356 7.8065
ltoes -19.1437
978
root 3.23408 17.4789 34.3922 4.64088 189.793 5.29984
lowerback 2.66582 9.06059 13.0812
upperback 1.94101 12.3266 -3.20219
thorax 4.0757 6.57193 -10.1459
lowerneck -4.47441 -3.73565 4.54884
upperneck 6.0098 -5.06862 -4.4651
head 2.46368 -2.5764 -2.41206
rclavicle 4.95968e-014 -6.52014e-014
rhumerus 6.33688 -0.649461 -86.9598
rradius 40.2528
rwrist -24.3266
rhand -21.4771 -0.71328
rfingers 7.12502
rthumb 4.9137 -30.6363
lclavicle 4.95968e-014 -6.52014e-014
lhumerus -61.6138 13.2653 48.4199
lradius 44.4108
lwrist -0.658783
lhand -14.1722 -2.44088
lfingers 7.12502
lthumb 11.9631 27.1973
rfemur 17.3853 -10.6539 32.2145
rtibia -9.85972e-014
rfoot -11.4295 -28.0632
rtoes -6.83402
lfemur -42.7947 -2.12961 -14.2626
ltibia 25.8181
lfoot -10.7657 7.87366
ltoes -19.0542
979
root 3.22258 17.4574 34.2742 4.70188 189.637 5.42878
lowerback 2.69581 9.25248 13.2223
upperback 1.84147 12.6008 -3.29266
thorax 4.08164 6.7131 -10.2957
lowerneck -4.42016 -3.91629 4.46415
upperneck 5.98095 -5.30896 -4.35321
head 2.43596 -2.69371 -2.36283
rclavicle 2.35361e-013 2.5842e-014
rhumerus 7.11513 -0.994239 -86.8174
rradius 40.7015
rwrist -24.2183
rhand -21.4415 -0.590128
rfingers 7.12502
rthumb 4.94801 -30.5124
lclavicle 2.35361e-013 2.5842e-014
lhumerus -62.1029 12.945 47.8302
lradius 44.3621
lwrist -0.949045
lhand -13.8656 -2.4168
lfingers 7.12502
lthumb 12.2587 27.2039
rfemur 17.7544 -10.4719 32.2713
rtibia -2.22639e-014
rfoot -11.3964 -27.9145
rtoes -7.42625
lfemur -42.8492 -2.021 -14.2339
ltibia 25.7896
lfoot -10.7073 7.93938
ltoes -18.9766
980
root 3.21024 17.4352 34.1535 4.76551 189.469 5.57617
lowerback 2.72988 9.48773 13.3554
upperback 1.72102 12.935 -3.37944
thorax 4.0789 6.88244 -10.4309
lowerneck -4.34305 -4.1356 4.44129
upperneck 5.94646 -5.60321 -4.26178
head 2.39817 -2.837 -2.33163
rclavicle -6.39093e-014 1.31198e-014
rhumerus 7.82846 -1.48557 -86.6426
rradius 41.1548
rwrist -24.0076
rhand -21.4533 -0.441369
rfingers 7.12502
rthumb 4.93665 -30.3639
lclavicle -6.39093e-014 1.31198e-014
lhumerus -62.4708 12.5107 47.3298
lradius 44.2341
lwrist -1.07149
lhand -13.5711 -2.38531
lfingers 7.12502
lthumb 12.5426 27.2182
rfemur 18.1225 -10.2766 32.3529
rtibia -7.95139e-014
rfoot -11.3245 -27.8018
rtoes -8.05643
lfemur -42.8808 -1.96079 -14.1419
ltibia 25.838
lfoot -10.6643 7.98422
ltoes -18.907
981
root 3.19669 17.4129 34.0298 4.83417 189.285 5.73133
lowerback 2.7671 9.76204 13.4766
upperback 1.57733 13.3238 -3.46827
thorax 4.06467 7.07691 -10.5559
lowerneck -4.27185 -4.39181 4.45506
upperneck 5.95312 -5.94912 -4.17211
head 2.37214 -3.00532 -2.30987
rclavicle -4.07509e-014 4.45278e-014
rhumerus 8.46393 -2.09667 -86.4461
rradius 41.6202
rwrist -23.7276
rhand -21.4861 -0.299478
rfingers 7.12502
rthumb 4.905 -30.2227
lclavicle -4.07509e-014 4.45278e-014
lhumerus -62.7271 11.9761 46.9074
lradius 44.0325
lwrist -1.01997
lhand -13.2797 -2.35578
lfingers 7.12502
lthumb 12.8236 27.2303
rfemur 18.4915 -10.0636 32.4435
rtibia -2.54444e-014
rfoot -11.1867 -27.7177
rtoes -8.7509
lfemur -42.8846 -1.94881 -13.9968
ltibia 25.9576
lfoot -10.6411 7.97566
ltoes -18.8653
982
root 3.18165 17.3907 33.9028 4.91812 189.094 5.87191
lowerback 2.78129 9.95923 13.589
upperback 1.44653 13.6051 -3.55655
thorax 4.04596 7.21744 -10.6844
lowerneck -4.1748 -4.55764 4.49007
upperneck 5.87579 -6.17232 -4.12418
head 2.31804 -3.11346 -2.29898
rclavicle 1.10624e-013 -3.22031e-014
rhumerus 9.13176 -2.51847 -86.3508
rradius 42.0627
rwrist -23.3619
rhand -21.4757 -0.15308
rfingers 7.12502
rthumb 4.91506 -30.0761
lclavicle 1.10624e-013 -3.22031e-014
lhumerus -63.069 11.6162 46.4097
lradius 43.7772
lwrist -0.884221
lhand -13.0556 -2.32199
lfingers 7.12502
lthumb 13.0396 27.2504
rfemur 18.861 -9.84077 32.5169
rtibia -3.81667e-014
rfoot -11.0262 -27.6453
rtoes -9.45085
lfemur -42.8627 -1.98977 -13.8285
ltibia 26.139
lfoot -10.6305 7.8954
ltoes -18.8262
983
root 3.16478 17.3684 33.7722 5.00636 188.906 5.99491
lowerback 2.75727 10.1277 13.6923
upperback 1.33284 13.8415 -3.64429
thorax 4.05325 7.3375 -10.8036
lowerneck -4.08442 -4.69421 4.50352
upperneck 5.79769 -6.3558 -4.06236
head 2.268 -3.20201 -2.27884
rclavicle -8.8658e-014 -1.59028e-015
rhumerus 9.78778 -2.82382 -86.2841
rradius 42.5248
rwrist -23.2183
rhand -21.5811 0.01314
rfingers 7.12502
rthumb 4.8133 -29.9122
lclavicle -8.8658e-014 -1.59028e-015
lhumerus -63.4027 11.3214 45.9147
lradius 43.4737
lwrist -0.603753
lhand -12.8272 -2.31888
lfingers 7.12502
lthumb 13.2598 27.2394
rfemur 19.2418 -9.62015 32.5661
rtibia 1.90833e-014
rfoot -10.8364 -27.5792
rtoes -10.1632
lfemur -42.8009 -2.10903 -13.6345
ltibia 26.3763
lfoot -10.6233 7.75043
ltoes -18.7883
984
root 3.14625 17.346 33.6377 5.10743 188.705 6.09699
lowerback 2.68697 10.2413 13.7857
upperback 1.241 13.9966 -3.73188
thorax 4.08474 7.419 -10.9175
lowerneck -4.01091 -4.76088 4.50918
upperneck 5.70529 -6.44539 -4.00707
head 2.22106 -3.24436 -2.25765
rclavicle 8.05078e-014 4.37326e-015
rhumerus 10.4519 -2.92683 -86.2896
rradius 43.0077
rwrist -23.3259
rhand -21.7379 0.223218
rfingers 7.12502
rthumb 4.6619 -29.7055
lclavicle 8.05078e-014 4.37326e-015
lhumerus -63.7951 11.1575 45.3814
lradius 43.1396
lwrist -0.250598
lhand -12.6213 -2.31662
lfingers 7.12502
lthumb 13.4582 27.2286
rfemur 19.6292 -9.38375 32.5857
rtibia -6.36111e-014
rfoot -10.6421 -27.5075
rtoes -10.841
lfemur -42.6986 -2.26753 -13.4334
ltibia 26.6612
lfoot -10.6112 7.53561
ltoes -18.7777
